<svg width="132" height="46" viewBox="0 0 132 46" fill="none" xmlns="http://www.w3.org/2000/svg">
<path d="M36.5807 18.9987L32.9714 30H30.0638L34.9948 16.7292H36.8451L36.5807 18.9987ZM39.5794 30L35.9609 18.9987L35.6693 16.7292H37.5378L42.4961 30H39.5794ZM39.4154 25.0599V27.2018H32.4063V25.0599H39.4154ZM46.3333 20.138V30H43.6992V20.138H46.3333ZM43.5352 17.5677C43.5352 17.1849 43.6688 16.8689 43.9362 16.6198C44.2036 16.3707 44.5621 16.2461 45.0117 16.2461C45.4553 16.2461 45.8108 16.3707 46.0781 16.6198C46.3516 16.8689 46.4883 17.1849 46.4883 17.5677C46.4883 17.9505 46.3516 18.2665 46.0781 18.5156C45.8108 18.7648 45.4553 18.8893 45.0117 18.8893C44.5621 18.8893 44.2036 18.7648 43.9362 18.5156C43.6688 18.2665 43.5352 17.9505 43.5352 17.5677ZM56.3503 27.9492V30H48.8581V27.9492H56.3503ZM56.2044 21.651L49.9154 30H48.1563V28.4414L54.418 20.138H56.2044V21.651ZM55.2747 20.138V22.1979H48.3021V20.138H55.2747ZM63.3229 27.776V23.3828C63.3229 23.0668 63.2713 22.7964 63.168 22.5716C63.0647 22.3407 62.9036 22.1615 62.6849 22.0339C62.4722 21.9062 62.1957 21.8424 61.8555 21.8424C61.5638 21.8424 61.3116 21.8941 61.099 21.9974C60.8863 22.0946 60.7222 22.2374 60.6068 22.4258C60.4913 22.6081 60.4336 22.8238 60.4336 23.0729H57.8086C57.8086 22.6536 57.9058 22.2556 58.1003 21.8789C58.2947 21.5022 58.5773 21.171 58.9479 20.8854C59.3186 20.5937 59.7591 20.3659 60.2695 20.2018C60.786 20.0378 61.3633 19.9557 62.0013 19.9557C62.7669 19.9557 63.4475 20.0833 64.043 20.3385C64.6385 20.5937 65.1063 20.9766 65.4466 21.487C65.793 21.9974 65.9661 22.6354 65.9661 23.401V27.6211C65.9661 28.1619 65.9996 28.6055 66.0664 28.9518C66.1332 29.2921 66.2305 29.5898 66.3581 29.8451V30H63.7057C63.5781 29.7326 63.4809 29.3984 63.4141 28.9974C63.3533 28.5903 63.3229 28.1832 63.3229 27.776ZM63.6693 23.9935L63.6875 25.4792H62.2201C61.8737 25.4792 61.5729 25.5187 61.3177 25.5977C61.0625 25.6766 60.8529 25.7891 60.6888 25.9349C60.5247 26.0747 60.4032 26.2387 60.3242 26.4271C60.2513 26.6155 60.2148 26.822 60.2148 27.0469C60.2148 27.2717 60.2665 27.4753 60.3698 27.6576C60.4731 27.8338 60.622 27.9735 60.8164 28.0768C61.0109 28.174 61.2387 28.2227 61.5 28.2227C61.895 28.2227 62.2383 28.1437 62.5299 27.9857C62.8216 27.8277 63.0464 27.6332 63.2044 27.4023C63.3685 27.1714 63.4536 26.9527 63.4596 26.7461L64.1523 27.8581C64.0551 28.1072 63.9214 28.3655 63.7513 28.6328C63.5872 28.9002 63.3776 29.1523 63.1224 29.3893C62.8672 29.6202 62.5603 29.8116 62.2018 29.9635C61.8433 30.1094 61.418 30.1823 60.9258 30.1823C60.2999 30.1823 59.7318 30.0577 59.2214 29.8086C58.717 29.5534 58.316 29.204 58.0182 28.7604C57.7266 28.3108 57.5807 27.8003 57.5807 27.2292C57.5807 26.7127 57.678 26.2539 57.8724 25.8529C58.0668 25.4518 58.3524 25.1146 58.7292 24.8411C59.112 24.5616 59.589 24.352 60.1602 24.2122C60.7313 24.0664 61.3937 23.9935 62.1471 23.9935H63.6693ZM72.8203 20.138V21.9974H67.0781V20.138H72.8203ZM68.5 17.7044H71.125V27.0286C71.125 27.3142 71.1615 27.533 71.2344 27.6849C71.3134 27.8368 71.4288 27.9431 71.5807 28.0039C71.7326 28.0586 71.924 28.0859 72.155 28.0859C72.319 28.0859 72.4648 28.0799 72.5925 28.0677C72.7261 28.0495 72.8385 28.0312 72.9297 28.013L72.9388 29.9453C72.714 30.0182 72.4709 30.076 72.2096 30.1185C71.9484 30.161 71.6597 30.1823 71.3438 30.1823C70.7665 30.1823 70.2622 30.0881 69.8307 29.8997C69.4054 29.7053 69.0773 29.3954 68.8464 28.9701C68.6155 28.5447 68.5 27.9857 68.5 27.293V17.7044ZM74.4427 28.7331C74.4427 28.3442 74.5764 28.0191 74.8438 27.7578C75.1172 27.4965 75.4787 27.3659 75.9284 27.3659C76.378 27.3659 76.7365 27.4965 77.0039 27.7578C77.2773 28.0191 77.4141 28.3442 77.4141 28.7331C77.4141 29.122 77.2773 29.447 77.0039 29.7083C76.7365 29.9696 76.378 30.1003 75.9284 30.1003C75.4787 30.1003 75.1172 29.9696 74.8438 29.7083C74.5764 29.447 74.4427 29.122 74.4427 28.7331ZM83.0925 27.8945L85.7357 16.7292H87.2122L87.5495 18.5885L84.7331 30H83.1471L83.0925 27.8945ZM81.7344 16.7292L83.9219 27.8945L83.7396 30H81.9714L79.0273 16.7292H81.7344ZM89.8737 27.849L92.0339 16.7292H94.7409L91.806 30H90.0378L89.8737 27.849ZM88.0417 16.7292L90.7031 27.9401L90.6302 30H89.0443L86.2096 18.5794L86.5742 16.7292H88.0417ZM101.076 27.776V23.3828C101.076 23.0668 101.024 22.7964 100.921 22.5716C100.817 22.3407 100.656 22.1615 100.438 22.0339C100.225 21.9062 99.9484 21.8424 99.6081 21.8424C99.3164 21.8424 99.0642 21.8941 98.8516 21.9974C98.6389 22.0946 98.4748 22.2374 98.3594 22.4258C98.2439 22.6081 98.1862 22.8238 98.1862 23.0729H95.5612C95.5612 22.6536 95.6584 22.2556 95.8529 21.8789C96.0473 21.5022 96.3299 21.171 96.7005 20.8854C97.0712 20.5937 97.5117 20.3659 98.0221 20.2018C98.5386 20.0378 99.1159 19.9557 99.7539 19.9557C100.52 19.9557 101.2 20.0833 101.796 20.3385C102.391 20.5937 102.859 20.9766 103.199 21.487C103.546 21.9974 103.719 22.6354 103.719 23.401V27.6211C103.719 28.1619 103.752 28.6055 103.819 28.9518C103.886 29.2921 103.983 29.5898 104.111 29.8451V30H101.458C101.331 29.7326 101.234 29.3984 101.167 28.9974C101.106 28.5903 101.076 28.1832 101.076 27.776ZM101.422 23.9935L101.44 25.4792H99.9727C99.6263 25.4792 99.3255 25.5187 99.0703 25.5977C98.8151 25.6766 98.6055 25.7891 98.4414 25.9349C98.2773 26.0747 98.1558 26.2387 98.0768 26.4271C98.0039 26.6155 97.9675 26.822 97.9675 27.0469C97.9675 27.2717 98.0191 27.4753 98.1224 27.6576C98.2257 27.8338 98.3746 27.9735 98.569 28.0768C98.7635 28.174 98.9913 28.2227 99.2526 28.2227C99.6476 28.2227 99.9909 28.1437 100.283 27.9857C100.574 27.8277 100.799 27.6332 100.957 27.4023C101.121 27.1714 101.206 26.9527 101.212 26.7461L101.905 27.8581C101.808 28.1072 101.674 28.3655 101.504 28.6328C101.34 28.9002 101.13 29.1523 100.875 29.3893C100.62 29.6202 100.313 29.8116 99.9544 29.9635C99.5959 30.1094 99.1706 30.1823 98.6784 30.1823C98.0525 30.1823 97.4844 30.0577 96.974 29.8086C96.4696 29.5534 96.0686 29.204 95.7708 28.7604C95.4792 28.3108 95.3333 27.8003 95.3333 27.2292C95.3333 26.7127 95.4306 26.2539 95.625 25.8529C95.8194 25.4518 96.105 25.1146 96.4818 24.8411C96.8646 24.5616 97.3416 24.352 97.9128 24.2122C98.4839 24.0664 99.1463 23.9935 99.8997 23.9935H101.422ZM108.513 16V30H105.879V16H108.513ZM113.453 16V30H110.819V16H113.453ZM120.161 30.1823C119.396 30.1823 118.709 30.0608 118.102 29.8177C117.494 29.5686 116.977 29.2253 116.552 28.7878C116.133 28.3503 115.811 27.8429 115.586 27.2656C115.361 26.6823 115.249 26.0625 115.249 25.4062V25.0417C115.249 24.2943 115.355 23.6107 115.568 22.9909C115.78 22.3711 116.084 21.8333 116.479 21.3776C116.88 20.9219 117.366 20.5725 117.938 20.3294C118.509 20.0803 119.153 19.9557 119.87 19.9557C120.569 19.9557 121.188 20.0712 121.729 20.3021C122.27 20.533 122.723 20.8611 123.087 21.2865C123.458 21.7118 123.737 22.2222 123.926 22.8177C124.114 23.4071 124.208 24.0634 124.208 24.7865V25.8802H116.37V24.1302H121.629V23.9297C121.629 23.5651 121.562 23.24 121.428 22.9544C121.301 22.6628 121.106 22.4319 120.845 22.2617C120.584 22.0916 120.25 22.0065 119.842 22.0065C119.496 22.0065 119.198 22.0825 118.949 22.2344C118.7 22.3863 118.497 22.599 118.339 22.8724C118.187 23.1458 118.071 23.4679 117.992 23.8385C117.919 24.2031 117.883 24.6042 117.883 25.0417V25.4062C117.883 25.8012 117.938 26.1658 118.047 26.5C118.162 26.8342 118.323 27.1228 118.53 27.3659C118.743 27.6089 118.998 27.7973 119.296 27.931C119.599 28.0647 119.943 28.1315 120.326 28.1315C120.799 28.1315 121.24 28.0404 121.647 27.8581C122.06 27.6697 122.416 27.3872 122.714 27.0104L123.99 28.3958C123.783 28.6936 123.5 28.9792 123.142 29.2526C122.79 29.526 122.364 29.7509 121.866 29.9271C121.368 30.0972 120.799 30.1823 120.161 30.1823ZM130.534 20.138V21.9974H124.792V20.138H130.534ZM126.214 17.7044H128.839V27.0286C128.839 27.3142 128.875 27.533 128.948 27.6849C129.027 27.8368 129.142 27.9431 129.294 28.0039C129.446 28.0586 129.638 28.0859 129.868 28.0859C130.033 28.0859 130.178 28.0799 130.306 28.0677C130.44 28.0495 130.552 28.0312 130.643 28.013L130.652 29.9453C130.428 30.0182 130.184 30.076 129.923 30.1185C129.662 30.161 129.373 30.1823 129.057 30.1823C128.48 30.1823 127.976 30.0881 127.544 29.8997C127.119 29.7053 126.791 29.3954 126.56 28.9701C126.329 28.5447 126.214 27.9857 126.214 27.293V17.7044Z" fill="url(#paint0_linear_0_9)"/>
<path d="M24.7382 8.01036C24.7382 8.01036 23.0297 12.1332 21.1351 13.0658C19.7455 13.7421 18.0591 13.2906 16.8132 13.1782C16.6824 13.1597 16.5497 13.1413 16.417 13.1266C15.8705 13.0661 15.321 13.036 14.7712 13.0363C11.9532 13.0289 9.48174 13.803 8.1179 14.9659C5.55243 13.9578 3.90662 12.3857 3.90662 10.633C3.90662 8.55221 6.21407 6.74052 9.61996 5.80243C10.6004 5.53753 11.6008 5.35262 12.6112 5.24952C12.6831 5.24952 12.7549 5.23294 12.8287 5.22741C13.5676 5.14989 14.3101 5.11114 15.0532 5.1113C15.6964 5.1113 16.288 5.14263 16.8132 5.18502C17.6046 5.25288 18.392 5.36115 19.1723 5.50939C21.5609 5.99042 23.531 6.88059 24.7382 8.01036Z" fill="url(#paint1_linear_0_9)"/>
<path d="M19.0065 37.7401C18.5503 38.9031 17.7423 39.8947 16.6954 40.5765H16.6659V40.5894C14.9626 40.9596 13.2245 41.1449 11.4815 41.1423C10.8309 41.1423 10.1914 41.1165 9.56105 41.0686C8.66922 40.9976 7.78159 40.8814 6.90158 40.7202L6.73202 40.6889L6.54772 40.652C6.25652 40.5968 5.97085 40.5359 5.68887 40.4677C4.29756 40.1581 2.94416 39.6977 1.65267 39.0947C1.37253 38.9638 1.11267 38.8256 0.865703 38.6837L0.266724 38.3372L0.948639 35.6759L0.97997 35.5543C0.97997 35.5377 0.97997 35.5193 0.992871 35.5045L1.05369 35.2631C1.30519 34.3143 1.86777 33.4774 2.65135 32.8862C3.43493 32.2951 4.3942 31.984 5.37556 32.0028C5.92731 32.0351 6.47281 32.1367 6.99926 32.305C9.00829 32.8933 11.093 33.1827 13.1863 33.1639C15.0057 33.1746 16.8194 32.9605 18.5863 32.5262C19.4433 34.2255 19.6479 36.0629 19.0065 37.7401Z" fill="url(#paint2_linear_0_9)"/>
<path d="M16.6956 40.5764L16.6658 40.5968V40.5838L16.6956 40.5764Z" fill="black"/>
<path d="M13.2599 0.533234C10.5875 0.533234 9.94802 2.09611 9.85034 4.15107H9.83191V40.9524V45.3332H13.2599C16.2622 45.3332 16.6953 43.3723 16.6953 40.9524V0.533234H13.2599Z" fill="url(#paint3_linear_0_9)"/>
<path d="M26.2531 29.8723C26.2531 35.1433 22.5321 39.2717 16.6989 40.5765C17.7459 39.8948 18.5539 38.9032 19.0101 37.7401C20.4698 33.9159 17.5467 29.2512 12.4784 27.3142C12.2941 27.2442 12.1098 27.1778 11.9255 27.1151H11.9016C11.6362 27.0156 11.3487 26.9161 11.0538 26.8147C6.26195 25.2021 0.742126 22.5224 0.742126 16.0994C0.742126 11.0533 4.19409 7.15898 9.80607 5.78778C8.52886 6.7996 7.69213 8.08971 7.4765 9.57702C7.03234 12.6493 9.36006 15.6866 13.083 17.4338C13.083 17.4338 13.083 17.4338 13.094 17.4338C14.2594 17.999 15.4528 18.5046 16.6695 18.9487C23.378 21.317 26.2531 24.5865 26.2531 29.8723Z" fill="url(#paint4_linear_0_9)"/>
<defs>
<linearGradient id="paint0_linear_0_9" x1="81" y1="14" x2="80.6148" y2="35.6025" gradientUnits="userSpaceOnUse">
<stop stop-color="#74D1E3"/>
<stop offset="1" stop-color="#245BA8"/>
</linearGradient>
<linearGradient id="paint1_linear_0_9" x1="24.2111" y1="11.7259" x2="6.51448" y2="9.21016" gradientUnits="userSpaceOnUse">
<stop stop-color="#66F2D1"/>
<stop offset="1" stop-color="#154398"/>
</linearGradient>
<linearGradient id="paint2_linear_0_9" x1="1.45178" y1="33.3445" x2="18.3854" y2="38.3796" gradientUnits="userSpaceOnUse">
<stop stop-color="#66F2D1"/>
<stop offset="0.13" stop-color="#5AD4C2"/>
<stop offset="0.44" stop-color="#4093A1"/>
<stop offset="0.69" stop-color="#2D6388"/>
<stop offset="0.89" stop-color="#21467A"/>
<stop offset="1" stop-color="#1D3B74"/>
</linearGradient>
<linearGradient id="paint3_linear_0_9" x1="13.0535" y1="-1.53279" x2="13.3447" y2="32.9242" gradientUnits="userSpaceOnUse">
<stop stop-color="#99FFE7"/>
<stop offset="0.15" stop-color="#95FAE6"/>
<stop offset="0.32" stop-color="#8AECE2"/>
<stop offset="0.45" stop-color="#7EDCDE"/>
<stop offset="0.52" stop-color="#70C7D1"/>
<stop offset="0.66" stop-color="#4D92AE"/>
<stop offset="0.67" stop-color="#498DAB"/>
<stop offset="0.95" stop-color="#6EC7DB"/>
<stop offset="1" stop-color="#74D1E3"/>
</linearGradient>
<linearGradient id="paint4_linear_0_9" x1="0.732911" y1="23.1803" x2="26.2494" y2="23.1803" gradientUnits="userSpaceOnUse">
<stop stop-color="#64C2ED"/>
<stop offset="1" stop-color="#154398"/>
</linearGradient>
</defs>
</svg>
